<?xml version="1.0" standalone="no"?>
<!DOCTYPE svg PUBLIC "-//W3C//DTD SVG 20010904//EN"
 "http://www.w3.org/TR/2001/REC-SVG-20010904/DTD/svg10.dtd">
<svg version="1.0" xmlns="http://www.w3.org/2000/svg"
 width="300.000000pt" height="300.000000pt" viewBox="0 0 300.000000 300.000000"
 preserveAspectRatio="xMidYMid meet">
<metadata>
Created by potrace 1.11, written by Peter Selinger 2001-2013
</metadata>
<g transform="translate(0.000000,300.000000) scale(0.100000,-0.100000)"
fill="#000000" stroke="none">
<path d="M1449 2832 c-66 -2 -79 -6 -99 -27 -13 -14 -27 -25 -32 -25 -5 0 -27
-12 -50 -26 -23 -15 -56 -28 -73 -29 -16 -1 -42 -7 -56 -13 -14 -5 -52 -14
-85 -18 -66 -9 -62 -8 -89 -18 -93 -36 -164 -85 -263 -183 -40 -39 -82 -75
-92 -78 -10 -3 -21 -14 -24 -23 -3 -9 -19 -32 -35 -51 -16 -18 -51 -76 -77
-128 l-49 -95 0 -206 c-1 -131 -5 -214 -12 -227 -6 -11 -11 -22 -11 -25 1 -3
-10 -25 -22 -50 -25 -47 -31 -101 -31 -240 1 -87 11 -118 62 -180 46 -58 63
-90 87 -170 30 -98 48 -133 83 -168 18 -18 36 -33 41 -33 4 -1 13 -2 19 -3 14
-1 40 -37 34 -46 -3 -4 5 -36 16 -71 33 -100 112 -210 174 -242 35 -17 176
-63 220 -70 17 -3 73 -15 125 -26 52 -11 109 -21 125 -23 33 -4 94 -34 110
-53 18 -23 86 -37 175 -36 48 0 98 5 112 10 30 11 135 106 142 129 6 19 29 33
157 98 47 24 94 53 104 64 10 11 23 20 29 20 17 0 85 59 109 95 12 18 43 64
69 102 25 38 50 87 54 108 5 27 23 54 65 97 32 33 63 57 67 54 14 -8 48 35 61
76 7 20 14 70 16 110 6 98 6 100 40 149 25 35 30 53 31 108 1 36 -3 72 -8 79
-12 14 -21 122 -10 122 4 0 14 10 21 23 17 27 27 137 12 137 -17 0 -60 82 -81
156 -12 38 -32 103 -46 144 -14 41 -28 86 -31 100 -3 14 -12 29 -20 33 -7 4
-42 67 -76 140 -95 199 -177 275 -397 370 -54 24 -91 31 -220 42 -41 3 -86 9
-100 12 -29 7 -163 10 -271 5z"/>
</g>
</svg>
